# xmcd
#
# Track frame offsets:
#	150
#	13133
#	20625
#	28678
#	34827
#	42771
#	59325
#	65019
#	72155
#	77905
#	86082
#	91803
#	98208
#	102699
#	108322
#	114008
#	119671
#	126980
#	138515
#	144021
#	156223
#	166366
#	172085
#	181392
#	187903
#	205044
#	214736
#	223054
#	231727
#
# Disc length: 3274 seconds
#
# Revision: 0
# Processed by: cddbd v1.5.1PL0 Copyright (c) Steve Scherf et al.
# Submitted via: audiograbber 1.83.01
#
DISCID=a90cc81d
DTITLE=амтымгс йуяитсгс - тА ВОЯЕУТИЙэ
DYEAR=1900
DGENRE=дглотийа
TTITLE0=лоуялоуяа
TTITLE1=папкыла
TTITLE2=дыс' лоу то йояитси хеиа
TTITLE3=г цумаийа поу л' аяесеи
TTITLE4=ас пам ма доум та латиа соу
TTITLE5=о йоййояас пот поуяи
TTITLE6=се тоуто то цало поу 'яхале
TTITLE7=о лаоуйас
TTITLE8=поиос лыяо лоу поиос
TTITLE9=мтаяи мтаяи
TTITLE10=ма с' ацапы гмта 'хека
TTITLE11=куцаяиа
TTITLE12=йапетамисса
TTITLE13=стгм паяо йаи стг мано
TTITLE14=мауацгса сто пекацос
TTITLE15=сто паяахуяи пяобаке
TTITLE16=еяг еяг
TTITLE17=циаселайи лоу
TTITLE18=йоулпаяа йатсе жяомила
TTITLE19=хекы ма ле йоитас ста латиа
TTITLE20=йаиме том еяыта лас
TTITLE21=та аисхглатийа лоу
TTITLE22=лодистяес йаи йоллытяиес
TTITLE23=йаты стгм акенамдяеиа
TTITLE24=та латайиа соу та лауяа
TTITLE25=валемо йояли
TTITLE26=асыто паиди
TTITLE27=бакте сто тяапефи дуо потгяиа
TTITLE28=отам бяадуафеи стгм йалаяа лоу
EXTD=
EXTT0=
EXTT1=
EXTT2=
EXTT3=
EXTT4=
EXTT5=
EXTT6=
EXTT7=
EXTT8=
EXTT9=
EXTT10=
EXTT11=
EXTT12=
EXTT13=
EXTT14=
EXTT15=
EXTT16=
EXTT17=
EXTT18=
EXTT19=
EXTT20=
EXTT21=
EXTT22=
EXTT23=
EXTT24=
EXTT25=
EXTT26=
EXTT27=
EXTT28=
PLAYORDER=
